<mxfile host="app.diagrams.net" modified="2024-02-15T23:44:58.909Z" agent="Mozilla/5.0 (Windows NT 10.0; Win64; x64) AppleWebKit/537.36 (KHTML, like Gecko) Chrome/121.0.0.0 Safari/537.36 Edg/121.0.0.0" etag="sJiIIfsdE3iFSKNE3DEW" version="23.1.1" type="device">
  <diagram id="R2lEEEUBdFMjLlhIrx00" name="Page-1">
    <mxGraphModel dx="664" dy="743" grid="1" gridSize="10" guides="1" tooltips="1" connect="1" arrows="1" fold="1" page="1" pageScale="1" pageWidth="850" pageHeight="1100" math="0" shadow="0" extFonts="Permanent Marker^https://fonts.googleapis.com/css?family=Permanent+Marker">
      <root>
        <mxCell id="0" />
        <mxCell id="1" parent="0" />
        <mxCell id="RGItTTr4jdZo3-wVmrJl-1" value="AUTOR" style="rounded=0;whiteSpace=wrap;html=1;" vertex="1" parent="1">
          <mxGeometry x="20" y="80" width="120" height="70" as="geometry" />
        </mxCell>
        <mxCell id="RGItTTr4jdZo3-wVmrJl-2" value="LIVRO" style="rounded=0;whiteSpace=wrap;html=1;" vertex="1" parent="1">
          <mxGeometry x="420" y="80" width="120" height="70" as="geometry" />
        </mxCell>
        <mxCell id="RGItTTr4jdZo3-wVmrJl-18" style="edgeStyle=orthogonalEdgeStyle;rounded=0;orthogonalLoop=1;jettySize=auto;html=1;exitX=1;exitY=0.5;exitDx=0;exitDy=0;entryX=0;entryY=0.5;entryDx=0;entryDy=0;" edge="1" parent="1" source="RGItTTr4jdZo3-wVmrJl-3" target="RGItTTr4jdZo3-wVmrJl-8">
          <mxGeometry relative="1" as="geometry" />
        </mxCell>
        <mxCell id="RGItTTr4jdZo3-wVmrJl-29" value="1" style="edgeLabel;html=1;align=center;verticalAlign=middle;resizable=0;points=[];" vertex="1" connectable="0" parent="RGItTTr4jdZo3-wVmrJl-18">
          <mxGeometry x="-0.08" y="-1" relative="1" as="geometry">
            <mxPoint as="offset" />
          </mxGeometry>
        </mxCell>
        <mxCell id="RGItTTr4jdZo3-wVmrJl-20" style="edgeStyle=orthogonalEdgeStyle;rounded=0;orthogonalLoop=1;jettySize=auto;html=1;exitX=0.5;exitY=1;exitDx=0;exitDy=0;entryX=0.5;entryY=0;entryDx=0;entryDy=0;" edge="1" parent="1" source="RGItTTr4jdZo3-wVmrJl-3" target="RGItTTr4jdZo3-wVmrJl-19">
          <mxGeometry relative="1" as="geometry">
            <mxPoint x="90" y="340" as="targetPoint" />
          </mxGeometry>
        </mxCell>
        <mxCell id="RGItTTr4jdZo3-wVmrJl-30" value="1" style="edgeLabel;html=1;align=center;verticalAlign=middle;resizable=0;points=[];" vertex="1" connectable="0" parent="RGItTTr4jdZo3-wVmrJl-20">
          <mxGeometry x="-0.2333" relative="1" as="geometry">
            <mxPoint as="offset" />
          </mxGeometry>
        </mxCell>
        <mxCell id="RGItTTr4jdZo3-wVmrJl-3" value="ALUNO" style="rounded=0;whiteSpace=wrap;html=1;" vertex="1" parent="1">
          <mxGeometry x="30" y="210" width="120" height="70" as="geometry" />
        </mxCell>
        <mxCell id="RGItTTr4jdZo3-wVmrJl-16" style="edgeStyle=orthogonalEdgeStyle;rounded=0;orthogonalLoop=1;jettySize=auto;html=1;exitX=0.5;exitY=1;exitDx=0;exitDy=0;entryX=0.5;entryY=0;entryDx=0;entryDy=0;" edge="1" parent="1" source="RGItTTr4jdZo3-wVmrJl-4" target="RGItTTr4jdZo3-wVmrJl-9">
          <mxGeometry relative="1" as="geometry" />
        </mxCell>
        <mxCell id="RGItTTr4jdZo3-wVmrJl-35" value="N" style="edgeLabel;html=1;align=center;verticalAlign=middle;resizable=0;points=[];" vertex="1" connectable="0" parent="RGItTTr4jdZo3-wVmrJl-16">
          <mxGeometry x="-0.2" y="1" relative="1" as="geometry">
            <mxPoint as="offset" />
          </mxGeometry>
        </mxCell>
        <mxCell id="RGItTTr4jdZo3-wVmrJl-4" value="EMPRÉSTIMO" style="rounded=0;whiteSpace=wrap;html=1;" vertex="1" parent="1">
          <mxGeometry x="420" y="210" width="120" height="70" as="geometry" />
        </mxCell>
        <mxCell id="RGItTTr4jdZo3-wVmrJl-24" style="edgeStyle=orthogonalEdgeStyle;rounded=0;orthogonalLoop=1;jettySize=auto;html=1;exitX=1;exitY=0.5;exitDx=0;exitDy=0;entryX=0;entryY=0.5;entryDx=0;entryDy=0;" edge="1" parent="1" source="RGItTTr4jdZo3-wVmrJl-5" target="RGItTTr4jdZo3-wVmrJl-23">
          <mxGeometry relative="1" as="geometry">
            <mxPoint x="230" y="510" as="targetPoint" />
          </mxGeometry>
        </mxCell>
        <mxCell id="RGItTTr4jdZo3-wVmrJl-32" value="N" style="edgeLabel;html=1;align=center;verticalAlign=middle;resizable=0;points=[];" vertex="1" connectable="0" parent="RGItTTr4jdZo3-wVmrJl-24">
          <mxGeometry x="0.0667" y="-2" relative="1" as="geometry">
            <mxPoint as="offset" />
          </mxGeometry>
        </mxCell>
        <mxCell id="RGItTTr4jdZo3-wVmrJl-5" value="DEVOLUÇÃO" style="rounded=0;whiteSpace=wrap;html=1;" vertex="1" parent="1">
          <mxGeometry x="30" y="480" width="120" height="60" as="geometry" />
        </mxCell>
        <mxCell id="RGItTTr4jdZo3-wVmrJl-6" value="FUNCIONÁRIO" style="rounded=0;whiteSpace=wrap;html=1;" vertex="1" parent="1">
          <mxGeometry x="420" y="480" width="120" height="60" as="geometry" />
        </mxCell>
        <mxCell id="RGItTTr4jdZo3-wVmrJl-13" style="edgeStyle=orthogonalEdgeStyle;rounded=0;orthogonalLoop=1;jettySize=auto;html=1;exitX=1;exitY=0.5;exitDx=0;exitDy=0;entryX=0;entryY=0.5;entryDx=0;entryDy=0;" edge="1" parent="1" source="RGItTTr4jdZo3-wVmrJl-7" target="RGItTTr4jdZo3-wVmrJl-2">
          <mxGeometry relative="1" as="geometry" />
        </mxCell>
        <mxCell id="RGItTTr4jdZo3-wVmrJl-27" value="N" style="edgeLabel;html=1;align=center;verticalAlign=middle;resizable=0;points=[];" vertex="1" connectable="0" parent="RGItTTr4jdZo3-wVmrJl-13">
          <mxGeometry x="-0.0889" y="1" relative="1" as="geometry">
            <mxPoint as="offset" />
          </mxGeometry>
        </mxCell>
        <mxCell id="RGItTTr4jdZo3-wVmrJl-7" value="ESCREVE" style="rhombus;whiteSpace=wrap;html=1;" vertex="1" parent="1">
          <mxGeometry x="250" y="75" width="80" height="80" as="geometry" />
        </mxCell>
        <mxCell id="RGItTTr4jdZo3-wVmrJl-15" style="edgeStyle=orthogonalEdgeStyle;rounded=0;orthogonalLoop=1;jettySize=auto;html=1;exitX=1;exitY=0.5;exitDx=0;exitDy=0;entryX=0;entryY=0.5;entryDx=0;entryDy=0;" edge="1" parent="1" source="RGItTTr4jdZo3-wVmrJl-8" target="RGItTTr4jdZo3-wVmrJl-4">
          <mxGeometry relative="1" as="geometry" />
        </mxCell>
        <mxCell id="RGItTTr4jdZo3-wVmrJl-28" value="N" style="edgeLabel;html=1;align=center;verticalAlign=middle;resizable=0;points=[];" vertex="1" connectable="0" parent="RGItTTr4jdZo3-wVmrJl-15">
          <mxGeometry x="-0.1111" y="1" relative="1" as="geometry">
            <mxPoint as="offset" />
          </mxGeometry>
        </mxCell>
        <mxCell id="RGItTTr4jdZo3-wVmrJl-8" value="REALIZA" style="rhombus;whiteSpace=wrap;html=1;" vertex="1" parent="1">
          <mxGeometry x="250" y="205" width="80" height="80" as="geometry" />
        </mxCell>
        <mxCell id="RGItTTr4jdZo3-wVmrJl-22" style="edgeStyle=orthogonalEdgeStyle;rounded=0;orthogonalLoop=1;jettySize=auto;html=1;exitX=0.5;exitY=1;exitDx=0;exitDy=0;entryX=0.5;entryY=0;entryDx=0;entryDy=0;" edge="1" parent="1" source="RGItTTr4jdZo3-wVmrJl-9" target="RGItTTr4jdZo3-wVmrJl-6">
          <mxGeometry relative="1" as="geometry" />
        </mxCell>
        <mxCell id="RGItTTr4jdZo3-wVmrJl-34" value="1" style="edgeLabel;html=1;align=center;verticalAlign=middle;resizable=0;points=[];" vertex="1" connectable="0" parent="RGItTTr4jdZo3-wVmrJl-22">
          <mxGeometry x="-0.2" y="-1" relative="1" as="geometry">
            <mxPoint as="offset" />
          </mxGeometry>
        </mxCell>
        <mxCell id="RGItTTr4jdZo3-wVmrJl-9" value="EFETUA" style="rhombus;whiteSpace=wrap;html=1;" vertex="1" parent="1">
          <mxGeometry x="440" y="340" width="80" height="80" as="geometry" />
        </mxCell>
        <mxCell id="RGItTTr4jdZo3-wVmrJl-12" style="edgeStyle=orthogonalEdgeStyle;rounded=0;orthogonalLoop=1;jettySize=auto;html=1;exitX=1;exitY=0.5;exitDx=0;exitDy=0;" edge="1" parent="1" source="RGItTTr4jdZo3-wVmrJl-1">
          <mxGeometry relative="1" as="geometry">
            <mxPoint x="250" y="115" as="targetPoint" />
          </mxGeometry>
        </mxCell>
        <mxCell id="RGItTTr4jdZo3-wVmrJl-26" value="N" style="edgeLabel;html=1;align=center;verticalAlign=middle;resizable=0;points=[];" vertex="1" connectable="0" parent="RGItTTr4jdZo3-wVmrJl-12">
          <mxGeometry x="0.0227" relative="1" as="geometry">
            <mxPoint as="offset" />
          </mxGeometry>
        </mxCell>
        <mxCell id="RGItTTr4jdZo3-wVmrJl-21" style="edgeStyle=orthogonalEdgeStyle;rounded=0;orthogonalLoop=1;jettySize=auto;html=1;exitX=0.5;exitY=1;exitDx=0;exitDy=0;entryX=0.5;entryY=0;entryDx=0;entryDy=0;" edge="1" parent="1" source="RGItTTr4jdZo3-wVmrJl-19" target="RGItTTr4jdZo3-wVmrJl-5">
          <mxGeometry relative="1" as="geometry" />
        </mxCell>
        <mxCell id="RGItTTr4jdZo3-wVmrJl-31" value="N" style="edgeLabel;html=1;align=center;verticalAlign=middle;resizable=0;points=[];" vertex="1" connectable="0" parent="RGItTTr4jdZo3-wVmrJl-21">
          <mxGeometry x="-0.2667" y="1" relative="1" as="geometry">
            <mxPoint as="offset" />
          </mxGeometry>
        </mxCell>
        <mxCell id="RGItTTr4jdZo3-wVmrJl-19" value="SOLICITA" style="rhombus;whiteSpace=wrap;html=1;" vertex="1" parent="1">
          <mxGeometry x="50" y="340" width="80" height="80" as="geometry" />
        </mxCell>
        <mxCell id="RGItTTr4jdZo3-wVmrJl-25" style="edgeStyle=orthogonalEdgeStyle;rounded=0;orthogonalLoop=1;jettySize=auto;html=1;exitX=1;exitY=0.5;exitDx=0;exitDy=0;entryX=0;entryY=0.5;entryDx=0;entryDy=0;" edge="1" parent="1" source="RGItTTr4jdZo3-wVmrJl-23" target="RGItTTr4jdZo3-wVmrJl-6">
          <mxGeometry relative="1" as="geometry" />
        </mxCell>
        <mxCell id="RGItTTr4jdZo3-wVmrJl-33" value="1" style="edgeLabel;html=1;align=center;verticalAlign=middle;resizable=0;points=[];" vertex="1" connectable="0" parent="RGItTTr4jdZo3-wVmrJl-25">
          <mxGeometry x="-0.1" y="2" relative="1" as="geometry">
            <mxPoint as="offset" />
          </mxGeometry>
        </mxCell>
        <mxCell id="RGItTTr4jdZo3-wVmrJl-23" value="CONCLUI" style="rhombus;whiteSpace=wrap;html=1;" vertex="1" parent="1">
          <mxGeometry x="240" y="470" width="80" height="80" as="geometry" />
        </mxCell>
      </root>
    </mxGraphModel>
  </diagram>
</mxfile>
